<svg width="40" height="40" viewBox="0 0 40 40" fill="none" xmlns="http://www.w3.org/2000/svg">
<path d="M27.5076 21.1209C27.2926 21.1483 27.0775 21.1758 26.8671 21.2032C28.4912 23.5548 29.6944 27.1873 25.7096 30.765C21.4915 34.5531 14.7891 34.6766 12.195 32.4943C8.87359 29.699 10.9461 23.7881 22.3516 20.9287C20.183 18.7007 16.7883 17.0079 16.3034 13.0826C15.8779 9.63304 20.6497 4.58223 24.9502 5.46063C29.3605 6.36191 28.1115 12.0761 26.071 14.5969C25.824 14.4002 24.9547 13.6636 24.058 12.8401C25.3482 11.4173 25.9384 9.98989 26.007 8.49386C26.0527 7.51481 25.2796 6.13773 23.1796 6.72333C21.3634 7.23116 19.2268 9.17096 19.0987 11.0787C18.9203 13.7917 20.2974 14.7387 24.4606 18.5955C24.4606 18.5955 25.2109 19.1765 26.0573 20.1601C32.4349 19.117 36.7308 19.8994 39 20.1876C39 20.1235 39 20.0641 39 20C39 9.50494 30.4951 1 20 1C9.50494 1 1 9.50494 1 20C1 30.4951 9.50494 39 20 39C30.0787 39 38.3229 31.1539 38.9588 21.2398C37.7373 21.1072 32.1832 20.5582 27.5076 21.1209Z" fill="#E00815"/>
<path d="M13.1055 30.8244C16.7746 32.6224 23.7241 29.7767 24.145 25.4533C24.2868 23.9848 23.8659 22.8547 23.1476 21.8711C13.0323 24.1632 9.99904 29.3009 13.1055 30.8244Z" fill="#E00815"/>
</svg>
