<svg width="35" height="47" viewBox="0 0 35 47" fill="none" xmlns="http://www.w3.org/2000/svg">
<rect x="0.5" y="23.7804" width="34" height="22.7196" rx="1.5" stroke="black"/>
<path d="M5.38477 23.7196V13.7911C5.38477 9.35213 7.81235 5.26858 11.712 3.14783V3.14783C15.3211 1.18502 19.6791 1.18502 23.2883 3.14783V3.14783C27.188 5.26858 29.6155 9.35213 29.6155 13.7911V23.7196" stroke="black"/>
<path d="M8.44922 23.5V14.1742C8.44922 11.821 9.36567 9.56024 11.0043 7.87126V7.87126C14.5601 4.20625 20.4418 4.20625 23.9976 7.87126V7.87126C25.6362 9.56024 26.5527 11.821 26.5527 14.1742V23.5" stroke="black"/>
<mask id="path-4-inside-1_1576_3031" fill="white">
<path fill-rule="evenodd" clip-rule="evenodd" d="M20.0575 36.6668C20.9552 36.028 21.5389 34.9919 21.5389 33.8224C21.5389 31.8817 19.9317 30.3084 17.9491 30.3084C15.9666 30.3084 14.3594 31.8817 14.3594 33.8224C14.3594 35.0956 15.0511 36.2107 16.0867 36.8271L14.4637 40.9323C14.2042 41.5887 14.6879 42.3 15.3937 42.3H20.814C21.5197 42.3 22.0034 41.5887 21.7439 40.9323L20.0575 36.6668Z"/>
</mask>
<path d="M20.0575 36.6668L19.4778 35.852L18.8396 36.3061L19.1276 37.0344L20.0575 36.6668ZM16.0867 36.8271L17.0167 37.1948L17.3296 36.4032L16.5982 35.9678L16.0867 36.8271ZM14.4637 40.9323L15.3937 41.3L14.4637 40.9323ZM21.7439 40.9323L20.814 41.3L21.7439 40.9323ZM20.5389 33.8224C20.5389 34.6493 20.1277 35.3895 19.4778 35.852L20.6373 37.4815C21.7827 36.6665 22.5389 35.3346 22.5389 33.8224H20.5389ZM17.9491 31.3084C19.3996 31.3084 20.5389 32.454 20.5389 33.8224H22.5389C22.5389 31.3094 20.4638 29.3084 17.9491 29.3084V31.3084ZM15.3594 33.8224C15.3594 32.454 16.4986 31.3084 17.9491 31.3084V29.3084C15.4345 29.3084 13.3594 31.3094 13.3594 33.8224H15.3594ZM16.5982 35.9678C15.8468 35.5206 15.3594 34.7219 15.3594 33.8224H13.3594C13.3594 35.4693 14.2554 36.9008 15.5752 37.6864L16.5982 35.9678ZM15.3937 41.3L17.0167 37.1948L15.1567 36.4595L13.5337 40.5647L15.3937 41.3ZM15.3937 41.3H15.3937L13.5337 40.5647C13.0148 41.8773 13.9822 43.3 15.3937 43.3V41.3ZM20.814 41.3H15.3937V43.3H20.814V41.3ZM20.814 41.3V41.3V43.3C22.2255 43.3 23.1928 41.8773 22.6739 40.5647L20.814 41.3ZM19.1276 37.0344L20.814 41.3L22.6739 40.5647L20.9875 36.2991L19.1276 37.0344Z" fill="black" mask="url(#path-4-inside-1_1576_3031)"/>
</svg>
