<svg width="174" height="30" viewBox="0 0 174 30" fill="none" xmlns="http://www.w3.org/2000/svg">
<path d="M13.5734 4.39058C14.0224 3.00861 15.9776 3.00861 16.4266 4.39058L18.0309 9.32827C18.2318 9.9463 18.8077 10.3647 19.4575 10.3647H24.6493C26.1024 10.3647 26.7066 12.2242 25.531 13.0783L21.3307 16.1299C20.805 16.5119 20.585 17.1889 20.7858 17.807L22.3902 22.7447C22.8392 24.1266 21.2575 25.2758 20.0819 24.4217L15.8817 21.3701C15.3559 20.9881 14.6441 20.9881 14.1183 21.3701L9.91807 24.4217C8.7425 25.2758 7.16078 24.1266 7.60981 22.7447L9.21416 17.807C9.41497 17.189 9.19498 16.5119 8.66925 16.1299L4.469 13.0783C3.29343 12.2242 3.89759 10.3647 5.35068 10.3647H10.5425C11.1923 10.3647 11.7682 9.9463 11.9691 9.32827L13.5734 4.39058Z" fill="#FFEE51"/>
<path d="M49.5734 4.39058C50.0224 3.00861 51.9776 3.00861 52.4266 4.39058L54.0309 9.32827C54.2318 9.9463 54.8077 10.3647 55.4575 10.3647H60.6493C62.1024 10.3647 62.7066 12.2242 61.531 13.0783L57.3307 16.1299C56.805 16.5119 56.585 17.1889 56.7858 17.807L58.3902 22.7447C58.8392 24.1266 57.2575 25.2758 56.0819 24.4217L51.8817 21.3701C51.3559 20.9881 50.6441 20.9881 50.1183 21.3701L45.9181 24.4217C44.7425 25.2758 43.1608 24.1266 43.6098 22.7447L45.2142 17.807C45.415 17.189 45.195 16.5119 44.6693 16.1299L40.469 13.0783C39.2934 12.2242 39.8976 10.3647 41.3507 10.3647H46.5425C47.1923 10.3647 47.7682 9.9463 47.9691 9.32827L49.5734 4.39058Z" fill="#FFEE51"/>
<path d="M85.5734 4.39058C86.0224 3.00861 87.9776 3.00861 88.4266 4.39058L90.0309 9.32827C90.2318 9.9463 90.8077 10.3647 91.4575 10.3647H96.6493C98.1024 10.3647 98.7066 12.2242 97.531 13.0783L93.3307 16.1299C92.805 16.5119 92.585 17.1889 92.7858 17.807L94.3902 22.7447C94.8392 24.1266 93.2575 25.2758 92.0819 24.4217L87.8817 21.3701C87.3559 20.9881 86.6441 20.9881 86.1183 21.3701L81.9181 24.4217C80.7425 25.2758 79.1608 24.1266 79.6098 22.7447L81.2142 17.807C81.415 17.189 81.195 16.5119 80.6693 16.1299L76.469 13.0783C75.2934 12.2242 75.8976 10.3647 77.3507 10.3647H82.5425C83.1923 10.3647 83.7682 9.9463 83.9691 9.32827L85.5734 4.39058Z" fill="#FFEE51"/>
<path d="M121.573 4.39058C122.022 3.00861 123.978 3.00861 124.427 4.39058L126.031 9.32827C126.232 9.9463 126.808 10.3647 127.458 10.3647H132.649C134.102 10.3647 134.707 12.2242 133.531 13.0783L129.331 16.1299C128.805 16.5119 128.585 17.1889 128.786 17.807L130.39 22.7447C130.839 24.1266 129.258 25.2758 128.082 24.4217L123.882 21.3701C123.356 20.9881 122.644 20.9881 122.118 21.3701L117.918 24.4217C116.742 25.2758 115.161 24.1266 115.61 22.7447L117.214 17.807C117.415 17.189 117.195 16.5119 116.669 16.1299L112.469 13.0783C111.293 12.2242 111.898 10.3647 113.351 10.3647H118.542C119.192 10.3647 119.768 9.9463 119.969 9.32827L121.573 4.39058Z" fill="white"/>
<path d="M157.573 4.39058C158.022 3.00861 159.978 3.00861 160.427 4.39058L162.031 9.32827C162.232 9.9463 162.808 10.3647 163.458 10.3647H168.649C170.102 10.3647 170.707 12.2242 169.531 13.0783L165.331 16.1299C164.805 16.5119 164.585 17.1889 164.786 17.807L166.39 22.7447C166.839 24.1266 165.258 25.2758 164.082 24.4217L159.882 21.3701C159.356 20.9881 158.644 20.9881 158.118 21.3701L153.918 24.4217C152.742 25.2758 151.161 24.1266 151.61 22.7447L153.214 17.807C153.415 17.189 153.195 16.5119 152.669 16.1299L148.469 13.0783C147.293 12.2242 147.898 10.3647 149.351 10.3647H154.542C155.192 10.3647 155.768 9.9463 155.969 9.32827L157.573 4.39058Z" fill="white"/>
</svg>
