<svg width="155" height="207" viewBox="0 0 155 207" fill="none" xmlns="http://www.w3.org/2000/svg">
<rect x="0.5" y="103.033" width="154" height="103.467" rx="1.5" stroke="#343434" stroke-opacity="0.6"/>
<path d="M23.8457 104.467V52.8603C23.8457 38.1715 31.8965 24.6644 44.8166 17.6766L58.4704 10.2919C70.3438 3.87017 84.6553 3.87017 96.5287 10.2919L110.183 17.6766C123.103 24.6644 131.153 38.1715 131.153 52.8603V104.467" stroke="#343434" stroke-opacity="0.6"/>
<path d="M37.4141 103.5V62.5453C37.4141 52.1081 41.5181 42.0592 48.8064 34.5882V34.5882C64.5035 18.4976 90.497 18.4976 106.194 34.5882V34.5882C113.482 42.0592 117.586 52.1081 117.586 62.5453V103.5" stroke="#343434" stroke-opacity="0.6"/>
<mask id="path-4-inside-1_1572_3014" fill="white">
<path fill-rule="evenodd" clip-rule="evenodd" d="M88.8254 161.49C92.8009 158.677 95.3856 154.114 95.3856 148.963C95.3856 140.415 88.268 133.486 79.4881 133.486C70.7082 133.486 63.5907 140.415 63.5907 148.963C63.5907 154.57 66.654 159.481 71.2403 162.196L62.2026 184.931C61.9416 185.587 62.4253 186.3 63.1318 186.3H97.2146C97.9211 186.3 98.4049 185.587 98.1439 184.931L88.8254 161.49Z"/>
</mask>
<path d="M88.8254 161.49L88.2477 160.674L87.6055 161.128L87.8961 161.859L88.8254 161.49ZM71.2403 162.196L72.1695 162.566L72.4854 161.771L71.7497 161.336L71.2403 162.196ZM62.2026 184.931L61.2733 184.561H61.2733L62.2026 184.931ZM98.1439 184.931L97.2146 185.3H97.2146L98.1439 184.931ZM94.3856 148.963C94.3856 153.769 91.9756 158.036 88.2477 160.674L89.403 162.306C93.6263 159.318 96.3856 154.459 96.3856 148.963H94.3856ZM79.4881 134.486C87.7412 134.486 94.3856 140.993 94.3856 148.963H96.3856C96.3856 139.838 88.7949 132.486 79.4881 132.486V134.486ZM64.5907 148.963C64.5907 140.993 71.235 134.486 79.4881 134.486V132.486C70.1814 132.486 62.5907 139.838 62.5907 148.963H64.5907ZM71.7497 161.336C67.4471 158.789 64.5907 154.194 64.5907 148.963H62.5907C62.5907 154.947 65.8608 160.174 70.7309 163.057L71.7497 161.336ZM63.1318 185.3L72.1695 162.566L70.311 161.827L61.2733 184.561L63.1318 185.3ZM63.1318 185.3H63.1318L61.2733 184.561C60.7513 185.874 61.7187 187.3 63.1318 187.3V185.3ZM97.2146 185.3H63.1318V187.3H97.2146V185.3ZM97.2146 185.3H97.2146V187.3C98.6277 187.3 99.5951 185.874 99.0731 184.561L97.2146 185.3ZM87.8961 161.859L97.2146 185.3L99.0731 184.561L89.7547 161.12L87.8961 161.859Z" fill="#343434" fill-opacity="0.6" mask="url(#path-4-inside-1_1572_3014)"/>
</svg>
