<svg width="17" height="21" viewBox="0 0 17 21" fill="none" xmlns="http://www.w3.org/2000/svg">
<rect x="1.09766" y="10.9019" width="14.7463" height="9.59813" rx="1.5" stroke="#787878" stroke-opacity="0.6"/>
<path d="M3.01953 10.5981V6.19484C3.01953 4.19214 4.11779 2.35074 5.8799 1.39902V1.39902C7.49638 0.525943 9.44393 0.525943 11.0604 1.39902V1.39902C12.8225 2.35074 13.9208 4.19214 13.9208 6.19484V10.5981" stroke="#787878" stroke-opacity="0.6"/>
<path d="M4.39844 10.4999V6.35254C4.39844 5.28898 4.81452 4.26763 5.55772 3.50685V3.50685C7.1554 1.87136 9.78609 1.87136 11.3838 3.50685V3.50685C12.127 4.26763 12.5431 5.28899 12.5431 6.35254V10.4999" stroke="#787878" stroke-opacity="0.6"/>
<mask id="path-4-inside-1_1477_2168" fill="white">
<path fill-rule="evenodd" clip-rule="evenodd" d="M9.6152 16.3878C10.023 16.1029 10.2886 15.6376 10.2886 15.1121C10.2886 14.2449 9.56553 13.542 8.67359 13.542C7.78165 13.542 7.05859 14.2449 7.05859 15.1121C7.05859 15.6815 7.37039 16.1801 7.83705 16.4554C7.82901 16.4728 7.82136 16.4907 7.8141 16.5089L7.40758 17.5301C7.14619 18.1867 7.62992 18.8999 8.33667 18.8999H9.14971C9.85647 18.8999 10.3402 18.1867 10.0788 17.5301L9.67228 16.5089C9.65537 16.4664 9.63627 16.426 9.6152 16.3878Z"/>
</mask>
<path d="M9.6152 16.3878L9.04238 15.5682L8.3052 16.0833L8.73957 16.8708L9.6152 16.3878ZM7.83705 16.4554L8.74511 16.8742L9.12375 16.0534L8.34511 15.5941L7.83705 16.4554ZM7.8141 16.5089L6.88501 16.139L6.88501 16.139L7.8141 16.5089ZM7.40758 17.5301L6.47849 17.1602H6.47849L7.40758 17.5301ZM10.0788 17.5301L11.0079 17.1602V17.1602L10.0788 17.5301ZM9.67228 16.5089L10.6014 16.139L10.6014 16.139L9.67228 16.5089ZM9.2886 15.1121C9.2886 15.29 9.20022 15.4579 9.04238 15.5682L10.188 17.2075C10.8458 16.7479 11.2886 15.9853 11.2886 15.1121H9.2886ZM8.67359 14.542C9.04002 14.542 9.2886 14.8236 9.2886 15.1121H11.2886C11.2886 13.6663 10.091 12.542 8.67359 12.542V14.542ZM8.05859 15.1121C8.05859 14.8236 8.30717 14.542 8.67359 14.542V12.542C7.25614 12.542 6.05859 13.6663 6.05859 15.1121H8.05859ZM8.34511 15.5941C8.1625 15.4864 8.05859 15.3041 8.05859 15.1121H6.05859C6.05859 16.0589 6.57827 16.8739 7.329 17.3167L8.34511 15.5941ZM8.74319 16.8787C8.74391 16.8769 8.74456 16.8754 8.74511 16.8742L6.929 16.0366C6.91346 16.0702 6.8988 16.1044 6.88501 16.139L8.74319 16.8787ZM8.33667 17.8999L8.74319 16.8787L6.88501 16.139L6.47849 17.1602L8.33667 17.8999ZM8.33667 17.8999H8.33667L6.47849 17.1602C5.9557 18.4735 6.92316 19.8999 8.33667 19.8999V17.8999ZM9.14971 17.8999H8.33667V19.8999H9.14971V17.8999ZM9.14971 17.8999H9.14971V19.8999C10.5632 19.8999 11.5307 18.4735 11.0079 17.1602L9.14971 17.8999ZM8.74319 16.8787L9.14971 17.8999L11.0079 17.1602L10.6014 16.139L8.74319 16.8787ZM8.73957 16.8708C8.74023 16.872 8.74154 16.8746 8.74319 16.8787L10.6014 16.139C10.5692 16.0582 10.5323 15.98 10.4908 15.9049L8.73957 16.8708Z" fill="#787878" fill-opacity="0.6" mask="url(#path-4-inside-1_1477_2168)"/>
</svg>
