<svg width="16" height="21" viewBox="0 0 16 21" fill="none" xmlns="http://www.w3.org/2000/svg">
<rect x="0.5" y="10.9019" width="14.7463" height="9.59813" rx="1.5" stroke="#787878" stroke-opacity="0.6"/>
<path d="M2.42188 10.5981V6.19484C2.42188 4.19214 3.52014 2.35074 5.28224 1.39902V1.39902C6.89873 0.525943 8.84628 0.525943 10.4628 1.39902V1.39902C12.2249 2.35074 13.3231 4.19214 13.3231 6.19484V10.5981" stroke="#787878" stroke-opacity="0.6"/>
<path d="M3.80078 10.5V6.35263C3.80078 5.28908 4.21686 4.26773 4.96006 3.50694V3.50694C6.55775 1.87146 9.18843 1.87146 10.7861 3.50694V3.50694C11.5293 4.26773 11.9454 5.28908 11.9454 6.35263V10.5" stroke="#787878" stroke-opacity="0.6"/>
<mask id="path-4-inside-1_1576_3072" fill="white">
<path fill-rule="evenodd" clip-rule="evenodd" d="M9.01754 16.3879C9.42535 16.1029 9.69094 15.6377 9.69094 15.1121C9.69094 14.245 8.96788 13.5421 8.07594 13.5421C7.184 13.5421 6.46094 14.245 6.46094 15.1121C6.46094 15.6816 6.77273 16.1802 7.2394 16.4555C7.23136 16.4729 7.2237 16.4907 7.21645 16.5089L6.80993 17.5301C6.54853 18.1868 7.03226 18.9 7.73902 18.9H8.55206C9.25881 18.9 9.74254 18.1868 9.48115 17.5301L9.07463 16.5089C9.05771 16.4664 9.03861 16.4261 9.01754 16.3879Z"/>
</mask>
<path d="M9.01754 16.3879L8.44472 15.5682L7.70755 16.0834L8.14191 16.8709L9.01754 16.3879ZM7.2394 16.4555L8.14745 16.8743L8.52609 16.0534L7.74745 15.5941L7.2394 16.4555ZM7.21645 16.5089L6.28736 16.1391L6.28735 16.1391L7.21645 16.5089ZM6.80993 17.5301L5.88083 17.1603H5.88083L6.80993 17.5301ZM9.48115 17.5301L10.4102 17.1603V17.1603L9.48115 17.5301ZM9.07463 16.5089L10.0037 16.1391L10.0037 16.1391L9.07463 16.5089ZM8.69094 15.1121C8.69094 15.29 8.60256 15.4579 8.44472 15.5682L9.59036 17.2076C10.2481 16.7479 10.6909 15.9853 10.6909 15.1121H8.69094ZM8.07594 14.5421C8.44236 14.5421 8.69094 14.8237 8.69094 15.1121H10.6909C10.6909 13.6663 9.49339 12.5421 8.07594 12.5421V14.5421ZM7.46094 15.1121C7.46094 14.8237 7.70951 14.5421 8.07594 14.5421V12.5421C6.65848 12.5421 5.46094 13.6663 5.46094 15.1121H7.46094ZM7.74745 15.5941C7.56485 15.4864 7.46094 15.3041 7.46094 15.1121H5.46094C5.46094 16.059 5.98062 16.874 6.73134 17.3168L7.74745 15.5941ZM8.14554 16.8788C8.14626 16.877 8.1469 16.8755 8.14745 16.8743L6.33134 16.0366C6.31581 16.0703 6.30114 16.1045 6.28736 16.1391L8.14554 16.8788ZM7.73902 17.9L8.14554 16.8788L6.28735 16.1391L5.88083 17.1603L7.73902 17.9ZM7.73902 17.9H7.73902L5.88083 17.1603C5.35805 18.4736 6.32551 19.9 7.73902 19.9V17.9ZM8.55206 17.9H7.73902V19.9H8.55206V17.9ZM8.55206 17.9H8.55206V19.9C9.96557 19.9 10.933 18.4736 10.4102 17.1603L8.55206 17.9ZM8.14554 16.8788L8.55206 17.9L10.4102 17.1603L10.0037 16.1391L8.14554 16.8788ZM8.14191 16.8709C8.14258 16.8721 8.14388 16.8746 8.14554 16.8788L10.0037 16.1391C9.97154 16.0583 9.93464 15.9801 9.89318 15.9049L8.14191 16.8709Z" fill="#787878" fill-opacity="0.6" mask="url(#path-4-inside-1_1576_3072)"/>
</svg>
