<svg width="32" height="41" viewBox="0 0 32 41" fill="none" xmlns="http://www.w3.org/2000/svg">
<rect x="0.5" y="20.8086" width="31" height="19.6916" rx="1.5" stroke="#787878" stroke-opacity="0.6"/>
<path d="M4.92383 20.6916V12.4793C4.92383 8.34347 7.22793 4.5521 10.899 2.64723V2.64723C14.0977 0.987476 17.9038 0.987477 21.1025 2.64723V2.64723C24.7736 4.5521 27.0777 8.34348 27.0777 12.4793V20.6916" stroke="#787878" stroke-opacity="0.6"/>
<path d="M7.72461 20.4999V12.6322C7.72461 10.4134 8.61561 8.28747 10.1976 6.73166V6.73166C13.418 3.5646 18.5829 3.5646 21.8033 6.73166V6.73166C23.3853 8.28747 24.2763 10.4134 24.2763 12.6322V20.4999" stroke="#787878" stroke-opacity="0.6"/>
<mask id="path-4-inside-1_1587_2271" fill="white">
<path fill-rule="evenodd" clip-rule="evenodd" d="M18.3387 31.9861C19.1594 31.4289 19.693 30.5251 19.693 29.5049C19.693 27.8119 18.2236 26.4395 16.411 26.4395C14.5983 26.4395 13.1289 27.8119 13.1289 29.5049C13.1289 30.6155 13.7613 31.5882 14.7082 32.126L13.3029 35.5174C13.0301 36.1759 13.514 36.9002 14.2267 36.9002H18.878C19.5908 36.9002 20.0747 36.1758 19.8019 35.5174L18.3387 31.9861Z"/>
</mask>
<path d="M18.3387 31.9861L17.777 31.1588L17.103 31.6163L17.4148 32.3689L18.3387 31.9861ZM14.7082 32.126L15.632 32.5088L15.9702 31.6927L15.202 31.2564L14.7082 32.126ZM13.3029 35.5174L12.3791 35.1346L12.3791 35.1346L13.3029 35.5174ZM19.8019 35.5174L18.878 35.9002L18.878 35.9002L19.8019 35.5174ZM18.693 29.5049C18.693 30.1618 18.351 30.769 17.777 31.1588L18.9003 32.8134C19.9678 32.0888 20.693 30.8883 20.693 29.5049H18.693ZM16.411 27.4395C17.7367 27.4395 18.693 28.4274 18.693 29.5049H20.693C20.693 27.1964 18.7105 25.4395 16.411 25.4395V27.4395ZM14.1289 29.5049C14.1289 28.4274 15.0852 27.4395 16.411 27.4395V25.4395C14.1115 25.4395 12.1289 27.1964 12.1289 29.5049H14.1289ZM15.202 31.2564C14.5344 30.8773 14.1289 30.2187 14.1289 29.5049H12.1289C12.1289 31.0124 12.9882 32.2992 14.2143 32.9955L15.202 31.2564ZM14.2267 35.9002L15.632 32.5088L13.7843 31.7432L12.3791 35.1346L14.2267 35.9002ZM14.2267 35.9002L14.2267 35.9002L12.3791 35.1346C11.8334 36.4515 12.8013 37.9002 14.2267 37.9002V35.9002ZM18.878 35.9002H14.2267V37.9002H18.878V35.9002ZM18.878 35.9002V35.9002V37.9002C20.3035 37.9002 21.2714 36.4515 20.7257 35.1346L18.878 35.9002ZM17.4148 32.3689L18.878 35.9002L20.7257 35.1346L19.2625 31.6033L17.4148 32.3689Z" fill="#787878" fill-opacity="0.6" mask="url(#path-4-inside-1_1587_2271)"/>
</svg>
