<svg width="154" height="32" viewBox="0 0 154 32" fill="none" xmlns="http://www.w3.org/2000/svg">
<g clip-path="url(#clip0_1565_2211)">
<path d="M16.9688 32C25.8055 32 32.9689 24.8366 32.9689 16C32.9689 7.16344 25.8055 0 16.9688 0C8.13224 0 0.96875 7.16344 0.96875 16C0.96875 24.8366 8.13224 32 16.9688 32Z" fill="#CE2457"/>
<path fill-rule="evenodd" clip-rule="evenodd" d="M16.18 6.37709C11.2195 6.78274 7.32031 10.9371 7.32031 16.0021C7.32031 21.3359 11.6442 25.6597 16.9779 25.6597C22.3116 25.6597 26.6355 21.3359 26.6355 16.0021C26.6355 10.9365 22.7354 6.78182 17.7741 6.37695L17.5139 12.7203C19.0953 12.9766 20.3027 14.3484 20.3027 16.0021C20.3027 17.8384 18.8141 19.327 16.9779 19.327C15.1416 19.327 13.653 17.8384 13.653 16.0021C13.653 14.3489 14.8596 12.9776 16.4402 12.7206L16.18 6.37709Z" fill="white"/>
<path d="M16.9674 5.70035C18.1186 5.70035 19.0519 4.76707 19.0519 3.6158C19.0519 2.46453 18.1186 1.53125 16.9674 1.53125C15.8161 1.53125 14.8828 2.46453 14.8828 3.6158C14.8828 4.76707 15.8161 5.70035 16.9674 5.70035Z" fill="white"/>
<path d="M54.7598 15.9967C54.7598 18.2004 53.9537 19.9803 52.4311 21.4213C50.9084 22.8622 49.0275 23.5402 46.7883 23.5402C44.5491 23.5402 42.7577 22.8622 41.1455 21.4213C39.7124 19.9803 38.9062 18.2004 38.9062 15.9967C38.9062 13.7929 39.7125 12.013 41.2351 10.5721C42.7578 9.1312 44.6386 8.45312 46.7883 8.45312C48.9379 8.45312 50.9084 9.1312 52.4311 10.5721C53.9537 12.013 54.7598 13.7929 54.7598 15.9967ZM51.8041 15.9967C51.8041 14.7253 51.3562 13.6234 50.371 12.7758C49.4753 11.9282 48.2214 11.5044 46.7883 11.5044C45.3552 11.5044 44.1909 11.9282 43.2056 12.7758C42.2204 13.6234 41.7724 14.7253 41.7724 15.9967C41.7724 17.2681 42.2204 18.3699 43.2056 19.2175C44.1013 20.0651 45.3552 20.4889 46.7883 20.4889C48.2214 20.4889 49.4753 20.0651 50.371 19.2175C51.3562 18.3699 51.8041 17.2681 51.8041 15.9967Z" fill="black"/>
<path d="M64.2163 22.8638H60.9023V11.7603H55.7969V9.13281H69.2321V11.7603H64.2163V22.8638Z" fill="black"/>
<path d="M76.6542 23.2059C74.3255 23.2059 72.4445 22.8669 70.9219 22.1888V19.4765C72.6237 20.2393 74.415 20.5784 76.2064 20.5784C77.5499 20.5784 78.5352 20.4089 79.3413 20.0698C80.0578 19.7308 80.5057 19.2222 80.5057 18.6289C80.5057 17.4423 79.4309 16.9337 77.1917 16.9337H74.415V14.4757H77.1917C79.0726 14.4757 79.9683 13.9672 79.9683 12.9501C79.9683 11.8482 78.7143 11.3396 76.296 11.3396C74.6837 11.3396 73.0715 11.6787 71.3697 12.3568V9.72922C72.8924 9.13591 74.7733 8.79688 77.0125 8.79688C78.8039 8.79688 80.3266 9.13591 81.5805 9.81398C82.7449 10.4921 83.3719 11.4244 83.3719 12.4415C83.3719 13.9672 82.5658 14.9843 81.0431 15.4928C82.924 16.0861 83.9093 17.188 83.9093 18.8832C83.9093 20.1546 83.2823 21.2564 81.9388 22.0193C80.5953 22.8669 78.8039 23.2059 76.6542 23.2059Z" fill="black"/>
<path d="M101.982 15.9967C101.982 18.2004 101.176 19.9803 99.6535 21.4213C98.1308 22.8622 96.2499 23.5402 94.0106 23.5402C91.7714 23.5402 89.9801 22.8622 88.3678 21.4213C86.8452 19.9803 86.0391 18.2004 86.0391 15.9967C86.0391 13.7929 86.8452 12.013 88.3678 10.5721C89.9801 9.1312 91.861 8.45312 94.1002 8.45312C96.3394 8.45312 98.2204 9.1312 99.743 10.5721C101.176 12.013 101.982 13.7929 101.982 15.9967ZM99.116 15.9967C99.116 14.7253 98.6682 13.6234 97.6829 12.7758C96.7873 11.9282 95.5333 11.5044 94.1002 11.5044C92.6671 11.5044 91.5027 11.9282 90.5175 12.7758C89.5322 13.6234 89.0844 14.7253 89.0844 15.9967C89.0844 17.2681 89.5322 18.3699 90.5175 19.2175C91.4132 20.0651 92.6671 20.4889 94.1002 20.4889C95.5333 20.4889 96.7873 20.0651 97.6829 19.2175C98.5786 18.3699 99.116 17.2681 99.116 15.9967Z" fill="black"/>
<path d="M113.625 22.8638H104.938V9.13281H113.177C114.61 9.13281 115.774 9.47185 116.67 10.0652C117.566 10.6585 117.924 11.5908 117.924 12.6079C117.924 13.286 117.745 13.8793 117.386 14.3879C117.028 14.8964 116.58 15.3202 115.953 15.5745C117.924 16.083 118.91 17.2697 118.91 19.1344C118.91 20.321 118.461 21.2533 117.476 21.9314C116.58 22.5247 115.326 22.8638 113.625 22.8638ZM108.251 11.5908V14.6421H112.371C113.087 14.6421 113.625 14.4726 114.072 14.2184C114.431 13.9641 114.699 13.5403 114.699 13.1165C114.699 12.0994 113.983 11.5908 112.46 11.5908H108.251ZM108.251 17.0154V20.4058H112.998C113.804 20.4058 114.341 20.2362 114.789 19.982C115.237 19.6429 115.416 19.3039 115.416 18.7106C115.416 18.202 115.237 17.7782 114.789 17.4392C114.341 17.1002 113.714 17.0154 112.998 17.0154H108.251Z" fill="black"/>
<path d="M125.088 22.856H121.953V9.125H125.267V18.4485L133.418 9.125H136.553V22.856H133.239V13.5325L125.088 22.856Z" fill="black"/>
<path d="M143.314 22.856H140V9.125H143.314V22.856Z" fill="black"/>
<path d="M146.81 15.7374L153.449 22.7724H149.163L142.859 15.9069L148.743 9.21094H152.861L146.81 15.7374Z" fill="black"/>
</g>
<defs>
<clipPath id="clip0_1565_2211">
<rect width="154" height="32" fill="white"/>
</clipPath>
</defs>
</svg>
